# xmcd
#
# Track frame offsets:
#	150
#	16860
#	37691
#	50907
#	63715
#	82385
#	94747
#	117555
#	136802
#	152788
#	170271
#	181664
#
# Disc length: 2571 seconds
#
# Revision: 0
# Processed by: cddbd v1.5.2PL0 Copyright (c) Steve Scherf et al.
# Submitted via: dBpowerAMP V4.0
#
DISCID=9c0a090c
DTITLE=The Texas Sapphires - As He Wanders...
DYEAR=2010
DGENRE=Honkytonk
TTITLE0=Nashville Moon
TTITLE1=190
TTITLE2=Riddled Days
TTITLE3=Stunt Double
TTITLE4=Teardrops or Rain
TTITLE5=How Did I Get So Sloppy Drunk (When I was Drinkin' Neat)
TTITLE6=Make Him Make Me
TTITLE7=Baltimore Cage
TTITLE8=Farmer's Tan
TTITLE9=Spirits
TTITLE10=Freiheit Rag
TTITLE11=Pure Land
EXTD=
EXTT0=
EXTT1=
EXTT2=
EXTT3=
EXTT4=
EXTT5=
EXTT6=
EXTT7=
EXTT8=
EXTT9=
EXTT10=
EXTT11=
PLAYORDER=
